<svg width="19" height="21" viewBox="0 0 19 21" fill="none" xmlns="http://www.w3.org/2000/svg">
<path d="M11.625 10.5L7.375 14.7222M1 5.22222H18H1ZM2.0625 5.22222L3.125 17.8889C3.125 18.4488 3.34888 18.9858 3.7474 19.3817C4.14591 19.7776 4.68641 20 5.25 20H13.75C14.3136 20 14.8541 19.7776 15.2526 19.3817C15.6511 18.9858 15.875 18.4488 15.875 17.8889L16.9375 5.22222H2.0625ZM6.3125 5.22222V2.05556C6.3125 1.7756 6.42444 1.50712 6.6237 1.30917C6.82296 1.11121 7.09321 1 7.375 1H11.625C11.9068 1 12.177 1.11121 12.3763 1.30917C12.5756 1.50712 12.6875 1.7756 12.6875 2.05556V5.22222H6.3125ZM7.375 10.5L11.625 14.7222L7.375 10.5Z" stroke="white" stroke-linecap="round" stroke-linejoin="round"/>
</svg>
