<svg width="26" height="30" viewBox="0 0 26 30" fill="none" xmlns="http://www.w3.org/2000/svg">
<path d="M21.4998 17.4286C22.4659 17.4286 23.3925 17.8124 24.0757 18.4955C24.7588 19.1787 25.1426 20.1053 25.1426 21.0714V21.9396C25.1426 26.2831 20.0305 29.5714 12.9998 29.5714C5.96908 29.5714 0.856934 26.4544 0.856934 21.9396V21.0714C0.856934 20.1053 1.24073 19.1787 1.9239 18.4955C2.60707 17.8124 3.53364 17.4286 4.49979 17.4286H21.4998ZM21.4998 19.25H4.49979C4.04719 19.25 3.61081 19.4185 3.27566 19.7227C2.94051 20.0268 2.73061 20.4449 2.68686 20.8954L2.67836 21.0714V21.9396C2.67836 25.1866 6.79358 27.75 12.9998 27.75C18.9814 27.75 23.1451 25.1939 23.3151 22.1351L23.3212 21.9396V21.0714C23.3212 20.6188 23.1527 20.1824 22.8486 19.8473C22.5444 19.5122 22.1263 19.3023 21.6759 19.2585L21.4998 19.25ZM12.9998 0.428574C13.9566 0.428574 14.904 0.617024 15.7879 0.983166C16.6719 1.34931 17.475 1.88597 18.1516 2.56251C18.8281 3.23905 19.3648 4.04222 19.7309 4.92617C20.0971 5.81011 20.2855 6.75751 20.2855 7.71429C20.2855 8.67106 20.0971 9.61847 19.7309 10.5024C19.3648 11.3864 18.8281 12.1895 18.1516 12.8661C17.475 13.5426 16.6719 14.0793 15.7879 14.4454C14.904 14.8116 13.9566 15 12.9998 15C11.0675 15 9.21435 14.2324 7.84801 12.8661C6.48168 11.4997 5.71408 9.64658 5.71408 7.71429C5.71408 5.782 6.48168 3.92885 7.84801 2.56251C9.21435 1.19617 11.0675 0.428574 12.9998 0.428574ZM12.9998 2.25C11.5506 2.25 10.1607 2.8257 9.13596 3.85045C8.1112 4.87521 7.5355 6.26507 7.5355 7.71429C7.5355 9.16351 8.1112 10.5534 9.13596 11.5781C10.1607 12.6029 11.5506 13.1786 12.9998 13.1786C14.449 13.1786 15.8389 12.6029 16.8636 11.5781C17.8884 10.5534 18.4641 9.16351 18.4641 7.71429C18.4641 6.26507 17.8884 4.87521 16.8636 3.85045C15.8389 2.8257 14.449 2.25 12.9998 2.25Z" fill="#8E75FF"/>
</svg>
